{
	"asset":{
		"generator":"Khronos glTF Blender I/O v4.3.47",
		"version":"2.0"
	},
	"extensionsUsed":[
		"KHR_materials_emissive_strength"
	],
	"scene":0,
	"scenes":[
		{
			"name":"Scene",
			"nodes":[
				0,
				1,
				2
			]
		}
	],
	"nodes":[
		{
			"mesh":0,
			"name":"Body",
			"translation":[
				0,
				0.5863903164863586,
				0
			]
		},
		{
			"mesh":1,
			"name":"Sphere",
			"scale":[
				1.4597113132476807,
				0.9701371788978577,
				1.4597113132476807
			],
			"translation":[
				0,
				0.5816376209259033,
				0
			]
		},
		{
			"name":"EMP-displace"
		}
	],
	"materials":[
		{
			"doubleSided":true,
			"name":"Body"
		},
		{
			"doubleSided":true,
			"name":"Black",
			"pbrMetallicRoughness":{
				"baseColorFactor":[
					0,
					0,
					0,
					1
				],
				"metallicFactor":0,
				"roughnessFactor":0.5
			}
		},
		{
			"doubleSided":true,
			"name":"Material",
			"pbrMetallicRoughness":{
				"baseColorFactor":[
					0.29119160771369934,
					0.01903732679784298,
					0.010499713942408562,
					1
				],
				"metallicFactor":0,
				"roughnessFactor":0.5
			}
		},
		{
			"doubleSided":true,
			"emissiveFactor":[
				1,
				1,
				1
			],
			"extensions":{
				"KHR_materials_emissive_strength":{
					"emissiveStrength":1.399999976158142
				}
			},
			"name":"Material.001",
			"pbrMetallicRoughness":{
				"baseColorFactor":[
					0,
					0,
					0,
					1
				]
			}
		}
	],
	"meshes":[
		{
			"name":"Cube.001",
			"primitives":[
				{
					"attributes":{
						"POSITION":0,
						"NORMAL":1,
						"TEXCOORD_0":2
					},
					"indices":3,
					"material":0
				},
				{
					"attributes":{
						"POSITION":4,
						"NORMAL":5,
						"TEXCOORD_0":6
					},
					"indices":7,
					"material":1
				},
				{
					"attributes":{
						"POSITION":8,
						"NORMAL":9,
						"TEXCOORD_0":10
					},
					"indices":11,
					"material":2
				}
			]
		},
		{
			"name":"Sphere.001",
			"primitives":[
				{
					"attributes":{
						"POSITION":12,
						"NORMAL":13,
						"TEXCOORD_0":14,
						"TANGENT":15
					},
					"indices":16,
					"material":3
				}
			]
		}
	],
	"accessors":[
		{
			"bufferView":0,
			"componentType":5126,
			"count":453,
			"max":[
				1.3644778728485107,
				1.264163851737976,
				1.3644776344299316
			],
			"min":[
				-1.3644778728485107,
				-0.5747585892677307,
				-1.3644778728485107
			],
			"type":"VEC3"
		},
		{
			"bufferView":1,
			"componentType":5126,
			"count":453,
			"type":"VEC3"
		},
		{
			"bufferView":2,
			"componentType":5126,
			"count":453,
			"type":"VEC2"
		},
		{
			"bufferView":3,
			"componentType":5123,
			"count":2352,
			"type":"SCALAR"
		},
		{
			"bufferView":4,
			"componentType":5126,
			"count":64,
			"max":[
				-0.7299470901489258,
				0.6440744400024414,
				0.320473313331604
			],
			"min":[
				-0.8223849534988403,
				0.35744035243988037,
				-0.3204733431339264
			],
			"type":"VEC3"
		},
		{
			"bufferView":5,
			"componentType":5126,
			"count":64,
			"type":"VEC3"
		},
		{
			"bufferView":6,
			"componentType":5126,
			"count":64,
			"type":"VEC2"
		},
		{
			"bufferView":7,
			"componentType":5123,
			"count":180,
			"type":"SCALAR"
		},
		{
			"bufferView":8,
			"componentType":5126,
			"count":96,
			"max":[
				0.24188479781150818,
				0.22651620209217072,
				0.2446182370185852
			],
			"min":[
				-0.24188479781150818,
				-0.2624815106391907,
				-0.244618222117424
			],
			"type":"VEC3"
		},
		{
			"bufferView":9,
			"componentType":5126,
			"count":96,
			"type":"VEC3"
		},
		{
			"bufferView":10,
			"componentType":5126,
			"count":96,
			"type":"VEC2"
		},
		{
			"bufferView":11,
			"componentType":5123,
			"count":144,
			"type":"SCALAR"
		},
		{
			"bufferView":12,
			"componentType":5126,
			"count":7801,
			"max":[
				1.046347975730896,
				2.1541740894317627,
				0.9612770080566406
			],
			"min":[
				-0.9470825791358948,
				-0.6647031307220459,
				-0.9556064009666443
			],
			"type":"VEC3"
		},
		{
			"bufferView":13,
			"componentType":5126,
			"count":7801,
			"type":"VEC3"
		},
		{
			"bufferView":14,
			"componentType":5126,
			"count":7801,
			"type":"VEC2"
		},
		{
			"bufferView":15,
			"componentType":5126,
			"count":7801,
			"type":"VEC4"
		},
		{
			"bufferView":16,
			"componentType":5123,
			"count":45312,
			"type":"SCALAR"
		}
	],
	"bufferViews":[
		{
			"buffer":0,
			"byteLength":5436,
			"byteOffset":0,
			"target":34962
		},
		{
			"buffer":0,
			"byteLength":5436,
			"byteOffset":5436,
			"target":34962
		},
		{
			"buffer":0,
			"byteLength":3624,
			"byteOffset":10872,
			"target":34962
		},
		{
			"buffer":0,
			"byteLength":4704,
			"byteOffset":14496,
			"target":34963
		},
		{
			"buffer":0,
			"byteLength":768,
			"byteOffset":19200,
			"target":34962
		},
		{
			"buffer":0,
			"byteLength":768,
			"byteOffset":19968,
			"target":34962
		},
		{
			"buffer":0,
			"byteLength":512,
			"byteOffset":20736,
			"target":34962
		},
		{
			"buffer":0,
			"byteLength":360,
			"byteOffset":21248,
			"target":34963
		},
		{
			"buffer":0,
			"byteLength":1152,
			"byteOffset":21608,
			"target":34962
		},
		{
			"buffer":0,
			"byteLength":1152,
			"byteOffset":22760,
			"target":34962
		},
		{
			"buffer":0,
			"byteLength":768,
			"byteOffset":23912,
			"target":34962
		},
		{
			"buffer":0,
			"byteLength":288,
			"byteOffset":24680,
			"target":34963
		},
		{
			"buffer":0,
			"byteLength":93612,
			"byteOffset":24968,
			"target":34962
		},
		{
			"buffer":0,
			"byteLength":93612,
			"byteOffset":118580,
			"target":34962
		},
		{
			"buffer":0,
			"byteLength":62408,
			"byteOffset":212192,
			"target":34962
		},
		{
			"buffer":0,
			"byteLength":124816,
			"byteOffset":274600,
			"target":34962
		},
		{
			"buffer":0,
			"byteLength":90624,
			"byteOffset":399416,
			"target":34963
		}
	],
	"buffers":[
		{
			"byteLength":490040,
			"uri":"FireSlime-1edadb827041e4fe955c49d1a3b7975a.bin"
		}
	]
}
