{
	"asset":{
		"generator":"Khronos glTF Blender I/O v4.3.47",
		"version":"2.0"
	},
	"scene":0,
	"scenes":[
		{
			"name":"Scene",
			"nodes":[
				0,
				1,
				2,
				3,
				4,
				5,
				6,
				7,
				8,
				9
			]
		}
	],
	"nodes":[
		{
			"mesh":0,
			"name":"In",
			"scale":[
				1,
				1,
				10
			],
			"translation":[
				-11,
				1,
				-44
			]
		},
		{
			"mesh":1,
			"name":"Sides",
			"scale":[
				1,
				1,
				10
			],
			"translation":[
				-11,
				1,
				-44
			]
		},
		{
			"mesh":2,
			"name":"Mod1-col",
			"scale":[
				1,
				1,
				10
			],
			"translation":[
				-11,
				1,
				0
			]
		},
		{
			"mesh":3,
			"name":"Mod2-col",
			"scale":[
				1,
				1,
				10
			],
			"translation":[
				-11,
				1,
				-22
			]
		},
		{
			"mesh":4,
			"name":"In.001",
			"scale":[
				1,
				1,
				10
			],
			"translation":[
				-11,
				1,
				22
			]
		},
		{
			"mesh":5,
			"name":"Sides.001",
			"scale":[
				1,
				1,
				10
			],
			"translation":[
				-11,
				1,
				22
			]
		},
		{
			"mesh":6,
			"name":"In.002",
			"scale":[
				1,
				1,
				10
			],
			"translation":[
				-11,
				1,
				44
			]
		},
		{
			"mesh":7,
			"name":"Sides.002",
			"scale":[
				1,
				1,
				10
			],
			"translation":[
				-11,
				1,
				44
			]
		},
		{
			"mesh":8,
			"name":"In.003",
			"scale":[
				1,
				1,
				10
			],
			"translation":[
				-11,
				1,
				66
			]
		},
		{
			"mesh":9,
			"name":"Sides.003",
			"scale":[
				1,
				1,
				10
			],
			"translation":[
				-11,
				1,
				66
			]
		}
	],
	"materials":[
		{
			"doubleSided":true,
			"name":"Grass",
			"pbrMetallicRoughness":{
				"baseColorTexture":{
					"index":0
				},
				"metallicFactor":0,
				"roughnessFactor":0.5
			}
		},
		{
			"doubleSided":true,
			"name":"Dirt",
			"pbrMetallicRoughness":{
				"baseColorTexture":{
					"index":1
				},
				"metallicFactor":0,
				"roughnessFactor":0.5
			}
		},
		{
			"doubleSided":true,
			"name":"GreenGrass",
			"pbrMetallicRoughness":{
				"baseColorFactor":[
					0.5271116495132446,
					0.9646875262260437,
					0.026241453364491463,
					1
				],
				"metallicFactor":0,
				"roughnessFactor":0.5
			}
		},
		{
			"doubleSided":true,
			"name":"Dirt2",
			"pbrMetallicRoughness":{
				"metallicFactor":0,
				"roughnessFactor":0.5
			}
		}
	],
	"meshes":[
		{
			"name":"Cube.004",
			"primitives":[
				{
					"attributes":{
						"POSITION":0,
						"NORMAL":1,
						"TEXCOORD_0":2,
						"TANGENT":3
					},
					"indices":4,
					"material":0
				},
				{
					"attributes":{
						"POSITION":5,
						"NORMAL":6,
						"TEXCOORD_0":7,
						"TANGENT":8
					},
					"indices":9,
					"material":1
				}
			]
		},
		{
			"name":"Cube.005",
			"primitives":[
				{
					"attributes":{
						"POSITION":10,
						"NORMAL":11,
						"TEXCOORD_0":12
					},
					"indices":13,
					"material":0
				},
				{
					"attributes":{
						"POSITION":14,
						"NORMAL":15,
						"TEXCOORD_0":16
					},
					"indices":17,
					"material":1
				}
			]
		},
		{
			"name":"Cube.001",
			"primitives":[
				{
					"attributes":{
						"POSITION":18,
						"NORMAL":19,
						"TEXCOORD_0":20
					},
					"indices":21,
					"material":0
				},
				{
					"attributes":{
						"POSITION":22,
						"NORMAL":23,
						"TEXCOORD_0":24
					},
					"indices":25,
					"material":1
				},
				{
					"attributes":{
						"POSITION":26,
						"NORMAL":27,
						"TEXCOORD_0":28
					},
					"indices":29,
					"material":2
				}
			]
		},
		{
			"name":"Cube.003",
			"primitives":[
				{
					"attributes":{
						"POSITION":30,
						"NORMAL":31,
						"TEXCOORD_0":32
					},
					"indices":21,
					"material":0
				},
				{
					"attributes":{
						"POSITION":33,
						"NORMAL":34,
						"TEXCOORD_0":35
					},
					"indices":25,
					"material":3
				},
				{
					"attributes":{
						"POSITION":36,
						"NORMAL":37,
						"TEXCOORD_0":38
					},
					"indices":39,
					"material":2
				}
			]
		},
		{
			"name":"Cube.006",
			"primitives":[
				{
					"attributes":{
						"POSITION":40,
						"NORMAL":41,
						"TEXCOORD_0":42,
						"TANGENT":43
					},
					"indices":4,
					"material":0
				},
				{
					"attributes":{
						"POSITION":44,
						"NORMAL":45,
						"TEXCOORD_0":46,
						"TANGENT":47
					},
					"indices":9,
					"material":1
				}
			]
		},
		{
			"name":"Cube.007",
			"primitives":[
				{
					"attributes":{
						"POSITION":48,
						"NORMAL":49,
						"TEXCOORD_0":50
					},
					"indices":13,
					"material":0
				},
				{
					"attributes":{
						"POSITION":51,
						"NORMAL":52,
						"TEXCOORD_0":53
					},
					"indices":17,
					"material":1
				}
			]
		},
		{
			"name":"Cube.008",
			"primitives":[
				{
					"attributes":{
						"POSITION":54,
						"NORMAL":55,
						"TEXCOORD_0":56,
						"TANGENT":57
					},
					"indices":4,
					"material":0
				},
				{
					"attributes":{
						"POSITION":58,
						"NORMAL":59,
						"TEXCOORD_0":60,
						"TANGENT":61
					},
					"indices":9,
					"material":1
				}
			]
		},
		{
			"name":"Cube.009",
			"primitives":[
				{
					"attributes":{
						"POSITION":62,
						"NORMAL":63,
						"TEXCOORD_0":64
					},
					"indices":13,
					"material":0
				},
				{
					"attributes":{
						"POSITION":65,
						"NORMAL":66,
						"TEXCOORD_0":67
					},
					"indices":17,
					"material":1
				}
			]
		},
		{
			"name":"Cube.010",
			"primitives":[
				{
					"attributes":{
						"POSITION":68,
						"NORMAL":69,
						"TEXCOORD_0":70,
						"TANGENT":71
					},
					"indices":4,
					"material":0
				},
				{
					"attributes":{
						"POSITION":72,
						"NORMAL":73,
						"TEXCOORD_0":74,
						"TANGENT":75
					},
					"indices":9,
					"material":1
				}
			]
		},
		{
			"name":"Cube.011",
			"primitives":[
				{
					"attributes":{
						"POSITION":76,
						"NORMAL":77,
						"TEXCOORD_0":78
					},
					"indices":13,
					"material":0
				},
				{
					"attributes":{
						"POSITION":79,
						"NORMAL":80,
						"TEXCOORD_0":81
					},
					"indices":17,
					"material":1
				}
			]
		}
	],
	"textures":[
		{
			"sampler":0,
			"source":0
		},
		{
			"sampler":0,
			"source":1
		}
	],
	"images":[
		{
			"mimeType":"image/png",
			"name":"Out",
			"uri":"../../Assets/ForestModules/textures/Out.png"
		},
		{
			"mimeType":"image/png",
			"name":"In",
			"uri":"../../Assets/ForestModules/textures/In.png"
		}
	],
	"accessors":[
		{
			"bufferView":0,
			"componentType":5126,
			"count":4,
			"max":[
				21,
				-0.0016293525695800781,
				1
			],
			"min":[
				21,
				-1,
				-1
			],
			"type":"VEC3"
		},
		{
			"bufferView":1,
			"componentType":5126,
			"count":4,
			"type":"VEC3"
		},
		{
			"bufferView":2,
			"componentType":5126,
			"count":4,
			"type":"VEC2"
		},
		{
			"bufferView":3,
			"componentType":5126,
			"count":4,
			"type":"VEC4"
		},
		{
			"bufferView":4,
			"componentType":5123,
			"count":6,
			"type":"SCALAR"
		},
		{
			"bufferView":5,
			"componentType":5126,
			"count":16,
			"max":[
				21.000019073486328,
				0,
				1
			],
			"min":[
				0.9999799728393555,
				-1,
				-1
			],
			"type":"VEC3"
		},
		{
			"bufferView":6,
			"componentType":5126,
			"count":16,
			"type":"VEC3"
		},
		{
			"bufferView":7,
			"componentType":5126,
			"count":16,
			"type":"VEC2"
		},
		{
			"bufferView":8,
			"componentType":5126,
			"count":16,
			"type":"VEC4"
		},
		{
			"bufferView":9,
			"componentType":5123,
			"count":24,
			"type":"SCALAR"
		},
		{
			"bufferView":10,
			"componentType":5126,
			"count":56,
			"max":[
				31,
				0.4234824776649475,
				1
			],
			"min":[
				-9,
				-1,
				-1
			],
			"type":"VEC3"
		},
		{
			"bufferView":11,
			"componentType":5126,
			"count":56,
			"type":"VEC3"
		},
		{
			"bufferView":12,
			"componentType":5126,
			"count":56,
			"type":"VEC2"
		},
		{
			"bufferView":13,
			"componentType":5123,
			"count":90,
			"type":"SCALAR"
		},
		{
			"bufferView":14,
			"componentType":5126,
			"count":8,
			"max":[
				21.000019073486328,
				0,
				1
			],
			"min":[
				0.9999799728393555,
				-1,
				-1
			],
			"type":"VEC3"
		},
		{
			"bufferView":15,
			"componentType":5126,
			"count":8,
			"type":"VEC3"
		},
		{
			"bufferView":16,
			"componentType":5126,
			"count":8,
			"type":"VEC2"
		},
		{
			"bufferView":17,
			"componentType":5123,
			"count":12,
			"type":"SCALAR"
		},
		{
			"bufferView":18,
			"componentType":5126,
			"count":60,
			"max":[
				31,
				0.4234824776649475,
				1
			],
			"min":[
				-9,
				-1,
				-1
			],
			"type":"VEC3"
		},
		{
			"bufferView":19,
			"componentType":5126,
			"count":60,
			"type":"VEC3"
		},
		{
			"bufferView":20,
			"componentType":5126,
			"count":60,
			"type":"VEC2"
		},
		{
			"bufferView":21,
			"componentType":5123,
			"count":96,
			"type":"SCALAR"
		},
		{
			"bufferView":22,
			"componentType":5126,
			"count":24,
			"max":[
				21.000019073486328,
				0,
				1
			],
			"min":[
				0.9999799728393555,
				-1,
				-1
			],
			"type":"VEC3"
		},
		{
			"bufferView":23,
			"componentType":5126,
			"count":24,
			"type":"VEC3"
		},
		{
			"bufferView":24,
			"componentType":5126,
			"count":24,
			"type":"VEC2"
		},
		{
			"bufferView":25,
			"componentType":5123,
			"count":36,
			"type":"SCALAR"
		},
		{
			"bufferView":26,
			"componentType":5126,
			"count":75912,
			"max":[
				31.184724807739258,
				1.9958525896072388,
				0.9564824104309082
			],
			"min":[
				-8.731057167053223,
				-0.6911463141441345,
				-0.9694466590881348
			],
			"type":"VEC3"
		},
		{
			"bufferView":27,
			"componentType":5126,
			"count":75912,
			"type":"VEC3"
		},
		{
			"bufferView":28,
			"componentType":5126,
			"count":75912,
			"type":"VEC2"
		},
		{
			"bufferView":29,
			"componentType":5125,
			"count":209892,
			"type":"SCALAR"
		},
		{
			"bufferView":30,
			"componentType":5126,
			"count":60,
			"max":[
				31,
				0.4234824776649475,
				1
			],
			"min":[
				-9,
				-1,
				-1
			],
			"type":"VEC3"
		},
		{
			"bufferView":31,
			"componentType":5126,
			"count":60,
			"type":"VEC3"
		},
		{
			"bufferView":32,
			"componentType":5126,
			"count":60,
			"type":"VEC2"
		},
		{
			"bufferView":33,
			"componentType":5126,
			"count":24,
			"max":[
				21.000022888183594,
				0,
				1.0000001192092896
			],
			"min":[
				0.9999780654907227,
				-1,
				-1.0000001192092896
			],
			"type":"VEC3"
		},
		{
			"bufferView":34,
			"componentType":5126,
			"count":24,
			"type":"VEC3"
		},
		{
			"bufferView":35,
			"componentType":5126,
			"count":24,
			"type":"VEC2"
		},
		{
			"bufferView":36,
			"componentType":5126,
			"count":76983,
			"max":[
				31.184724807739258,
				1.9958525896072388,
				0.9876391887664795
			],
			"min":[
				-9.067863464355469,
				-0.648959219455719,
				-0.927596926689148
			],
			"type":"VEC3"
		},
		{
			"bufferView":37,
			"componentType":5126,
			"count":76983,
			"type":"VEC3"
		},
		{
			"bufferView":38,
			"componentType":5126,
			"count":76983,
			"type":"VEC2"
		},
		{
			"bufferView":39,
			"componentType":5125,
			"count":213147,
			"type":"SCALAR"
		},
		{
			"bufferView":40,
			"componentType":5126,
			"count":4,
			"max":[
				21,
				-0.0016293525695800781,
				1
			],
			"min":[
				21,
				-1,
				-1
			],
			"type":"VEC3"
		},
		{
			"bufferView":41,
			"componentType":5126,
			"count":4,
			"type":"VEC3"
		},
		{
			"bufferView":42,
			"componentType":5126,
			"count":4,
			"type":"VEC2"
		},
		{
			"bufferView":43,
			"componentType":5126,
			"count":4,
			"type":"VEC4"
		},
		{
			"bufferView":44,
			"componentType":5126,
			"count":16,
			"max":[
				21.000019073486328,
				0,
				1
			],
			"min":[
				0.9999799728393555,
				-1,
				-1
			],
			"type":"VEC3"
		},
		{
			"bufferView":45,
			"componentType":5126,
			"count":16,
			"type":"VEC3"
		},
		{
			"bufferView":46,
			"componentType":5126,
			"count":16,
			"type":"VEC2"
		},
		{
			"bufferView":47,
			"componentType":5126,
			"count":16,
			"type":"VEC4"
		},
		{
			"bufferView":48,
			"componentType":5126,
			"count":56,
			"max":[
				31,
				0.4234824776649475,
				1
			],
			"min":[
				-9,
				-1,
				-1
			],
			"type":"VEC3"
		},
		{
			"bufferView":49,
			"componentType":5126,
			"count":56,
			"type":"VEC3"
		},
		{
			"bufferView":50,
			"componentType":5126,
			"count":56,
			"type":"VEC2"
		},
		{
			"bufferView":51,
			"componentType":5126,
			"count":8,
			"max":[
				21.000019073486328,
				0,
				1
			],
			"min":[
				0.9999799728393555,
				-1,
				-1
			],
			"type":"VEC3"
		},
		{
			"bufferView":52,
			"componentType":5126,
			"count":8,
			"type":"VEC3"
		},
		{
			"bufferView":53,
			"componentType":5126,
			"count":8,
			"type":"VEC2"
		},
		{
			"bufferView":54,
			"componentType":5126,
			"count":4,
			"max":[
				21,
				-0.0016293525695800781,
				1
			],
			"min":[
				21,
				-1,
				-1
			],
			"type":"VEC3"
		},
		{
			"bufferView":55,
			"componentType":5126,
			"count":4,
			"type":"VEC3"
		},
		{
			"bufferView":56,
			"componentType":5126,
			"count":4,
			"type":"VEC2"
		},
		{
			"bufferView":57,
			"componentType":5126,
			"count":4,
			"type":"VEC4"
		},
		{
			"bufferView":58,
			"componentType":5126,
			"count":16,
			"max":[
				21.000019073486328,
				0,
				1
			],
			"min":[
				0.9999799728393555,
				-1,
				-1
			],
			"type":"VEC3"
		},
		{
			"bufferView":59,
			"componentType":5126,
			"count":16,
			"type":"VEC3"
		},
		{
			"bufferView":60,
			"componentType":5126,
			"count":16,
			"type":"VEC2"
		},
		{
			"bufferView":61,
			"componentType":5126,
			"count":16,
			"type":"VEC4"
		},
		{
			"bufferView":62,
			"componentType":5126,
			"count":56,
			"max":[
				31,
				0.4234824776649475,
				1
			],
			"min":[
				-9,
				-1,
				-1
			],
			"type":"VEC3"
		},
		{
			"bufferView":63,
			"componentType":5126,
			"count":56,
			"type":"VEC3"
		},
		{
			"bufferView":64,
			"componentType":5126,
			"count":56,
			"type":"VEC2"
		},
		{
			"bufferView":65,
			"componentType":5126,
			"count":8,
			"max":[
				21.000019073486328,
				0,
				1
			],
			"min":[
				0.9999799728393555,
				-1,
				-1
			],
			"type":"VEC3"
		},
		{
			"bufferView":66,
			"componentType":5126,
			"count":8,
			"type":"VEC3"
		},
		{
			"bufferView":67,
			"componentType":5126,
			"count":8,
			"type":"VEC2"
		},
		{
			"bufferView":68,
			"componentType":5126,
			"count":4,
			"max":[
				21,
				-0.0016293525695800781,
				1
			],
			"min":[
				21,
				-1,
				-1
			],
			"type":"VEC3"
		},
		{
			"bufferView":69,
			"componentType":5126,
			"count":4,
			"type":"VEC3"
		},
		{
			"bufferView":70,
			"componentType":5126,
			"count":4,
			"type":"VEC2"
		},
		{
			"bufferView":71,
			"componentType":5126,
			"count":4,
			"type":"VEC4"
		},
		{
			"bufferView":72,
			"componentType":5126,
			"count":16,
			"max":[
				21.000019073486328,
				0,
				1
			],
			"min":[
				0.9999799728393555,
				-1,
				-1
			],
			"type":"VEC3"
		},
		{
			"bufferView":73,
			"componentType":5126,
			"count":16,
			"type":"VEC3"
		},
		{
			"bufferView":74,
			"componentType":5126,
			"count":16,
			"type":"VEC2"
		},
		{
			"bufferView":75,
			"componentType":5126,
			"count":16,
			"type":"VEC4"
		},
		{
			"bufferView":76,
			"componentType":5126,
			"count":56,
			"max":[
				31,
				0.4234824776649475,
				1
			],
			"min":[
				-9,
				-1,
				-1
			],
			"type":"VEC3"
		},
		{
			"bufferView":77,
			"componentType":5126,
			"count":56,
			"type":"VEC3"
		},
		{
			"bufferView":78,
			"componentType":5126,
			"count":56,
			"type":"VEC2"
		},
		{
			"bufferView":79,
			"componentType":5126,
			"count":8,
			"max":[
				21.000019073486328,
				0,
				1
			],
			"min":[
				0.9999799728393555,
				-1,
				-1
			],
			"type":"VEC3"
		},
		{
			"bufferView":80,
			"componentType":5126,
			"count":8,
			"type":"VEC3"
		},
		{
			"bufferView":81,
			"componentType":5126,
			"count":8,
			"type":"VEC2"
		}
	],
	"bufferViews":[
		{
			"buffer":0,
			"byteLength":48,
			"byteOffset":0,
			"target":34962
		},
		{
			"buffer":0,
			"byteLength":48,
			"byteOffset":48,
			"target":34962
		},
		{
			"buffer":0,
			"byteLength":32,
			"byteOffset":96,
			"target":34962
		},
		{
			"buffer":0,
			"byteLength":64,
			"byteOffset":128,
			"target":34962
		},
		{
			"buffer":0,
			"byteLength":12,
			"byteOffset":192,
			"target":34963
		},
		{
			"buffer":0,
			"byteLength":192,
			"byteOffset":204,
			"target":34962
		},
		{
			"buffer":0,
			"byteLength":192,
			"byteOffset":396,
			"target":34962
		},
		{
			"buffer":0,
			"byteLength":128,
			"byteOffset":588,
			"target":34962
		},
		{
			"buffer":0,
			"byteLength":256,
			"byteOffset":716,
			"target":34962
		},
		{
			"buffer":0,
			"byteLength":48,
			"byteOffset":972,
			"target":34963
		},
		{
			"buffer":0,
			"byteLength":672,
			"byteOffset":1020,
			"target":34962
		},
		{
			"buffer":0,
			"byteLength":672,
			"byteOffset":1692,
			"target":34962
		},
		{
			"buffer":0,
			"byteLength":448,
			"byteOffset":2364,
			"target":34962
		},
		{
			"buffer":0,
			"byteLength":180,
			"byteOffset":2812,
			"target":34963
		},
		{
			"buffer":0,
			"byteLength":96,
			"byteOffset":2992,
			"target":34962
		},
		{
			"buffer":0,
			"byteLength":96,
			"byteOffset":3088,
			"target":34962
		},
		{
			"buffer":0,
			"byteLength":64,
			"byteOffset":3184,
			"target":34962
		},
		{
			"buffer":0,
			"byteLength":24,
			"byteOffset":3248,
			"target":34963
		},
		{
			"buffer":0,
			"byteLength":720,
			"byteOffset":3272,
			"target":34962
		},
		{
			"buffer":0,
			"byteLength":720,
			"byteOffset":3992,
			"target":34962
		},
		{
			"buffer":0,
			"byteLength":480,
			"byteOffset":4712,
			"target":34962
		},
		{
			"buffer":0,
			"byteLength":192,
			"byteOffset":5192,
			"target":34963
		},
		{
			"buffer":0,
			"byteLength":288,
			"byteOffset":5384,
			"target":34962
		},
		{
			"buffer":0,
			"byteLength":288,
			"byteOffset":5672,
			"target":34962
		},
		{
			"buffer":0,
			"byteLength":192,
			"byteOffset":5960,
			"target":34962
		},
		{
			"buffer":0,
			"byteLength":72,
			"byteOffset":6152,
			"target":34963
		},
		{
			"buffer":0,
			"byteLength":910944,
			"byteOffset":6224,
			"target":34962
		},
		{
			"buffer":0,
			"byteLength":910944,
			"byteOffset":917168,
			"target":34962
		},
		{
			"buffer":0,
			"byteLength":607296,
			"byteOffset":1828112,
			"target":34962
		},
		{
			"buffer":0,
			"byteLength":839568,
			"byteOffset":2435408,
			"target":34963
		},
		{
			"buffer":0,
			"byteLength":720,
			"byteOffset":3274976,
			"target":34962
		},
		{
			"buffer":0,
			"byteLength":720,
			"byteOffset":3275696,
			"target":34962
		},
		{
			"buffer":0,
			"byteLength":480,
			"byteOffset":3276416,
			"target":34962
		},
		{
			"buffer":0,
			"byteLength":288,
			"byteOffset":3276896,
			"target":34962
		},
		{
			"buffer":0,
			"byteLength":288,
			"byteOffset":3277184,
			"target":34962
		},
		{
			"buffer":0,
			"byteLength":192,
			"byteOffset":3277472,
			"target":34962
		},
		{
			"buffer":0,
			"byteLength":923796,
			"byteOffset":3277664,
			"target":34962
		},
		{
			"buffer":0,
			"byteLength":923796,
			"byteOffset":4201460,
			"target":34962
		},
		{
			"buffer":0,
			"byteLength":615864,
			"byteOffset":5125256,
			"target":34962
		},
		{
			"buffer":0,
			"byteLength":852588,
			"byteOffset":5741120,
			"target":34963
		},
		{
			"buffer":0,
			"byteLength":48,
			"byteOffset":6593708,
			"target":34962
		},
		{
			"buffer":0,
			"byteLength":48,
			"byteOffset":6593756,
			"target":34962
		},
		{
			"buffer":0,
			"byteLength":32,
			"byteOffset":6593804,
			"target":34962
		},
		{
			"buffer":0,
			"byteLength":64,
			"byteOffset":6593836,
			"target":34962
		},
		{
			"buffer":0,
			"byteLength":192,
			"byteOffset":6593900,
			"target":34962
		},
		{
			"buffer":0,
			"byteLength":192,
			"byteOffset":6594092,
			"target":34962
		},
		{
			"buffer":0,
			"byteLength":128,
			"byteOffset":6594284,
			"target":34962
		},
		{
			"buffer":0,
			"byteLength":256,
			"byteOffset":6594412,
			"target":34962
		},
		{
			"buffer":0,
			"byteLength":672,
			"byteOffset":6594668,
			"target":34962
		},
		{
			"buffer":0,
			"byteLength":672,
			"byteOffset":6595340,
			"target":34962
		},
		{
			"buffer":0,
			"byteLength":448,
			"byteOffset":6596012,
			"target":34962
		},
		{
			"buffer":0,
			"byteLength":96,
			"byteOffset":6596460,
			"target":34962
		},
		{
			"buffer":0,
			"byteLength":96,
			"byteOffset":6596556,
			"target":34962
		},
		{
			"buffer":0,
			"byteLength":64,
			"byteOffset":6596652,
			"target":34962
		},
		{
			"buffer":0,
			"byteLength":48,
			"byteOffset":6596716,
			"target":34962
		},
		{
			"buffer":0,
			"byteLength":48,
			"byteOffset":6596764,
			"target":34962
		},
		{
			"buffer":0,
			"byteLength":32,
			"byteOffset":6596812,
			"target":34962
		},
		{
			"buffer":0,
			"byteLength":64,
			"byteOffset":6596844,
			"target":34962
		},
		{
			"buffer":0,
			"byteLength":192,
			"byteOffset":6596908,
			"target":34962
		},
		{
			"buffer":0,
			"byteLength":192,
			"byteOffset":6597100,
			"target":34962
		},
		{
			"buffer":0,
			"byteLength":128,
			"byteOffset":6597292,
			"target":34962
		},
		{
			"buffer":0,
			"byteLength":256,
			"byteOffset":6597420,
			"target":34962
		},
		{
			"buffer":0,
			"byteLength":672,
			"byteOffset":6597676,
			"target":34962
		},
		{
			"buffer":0,
			"byteLength":672,
			"byteOffset":6598348,
			"target":34962
		},
		{
			"buffer":0,
			"byteLength":448,
			"byteOffset":6599020,
			"target":34962
		},
		{
			"buffer":0,
			"byteLength":96,
			"byteOffset":6599468,
			"target":34962
		},
		{
			"buffer":0,
			"byteLength":96,
			"byteOffset":6599564,
			"target":34962
		},
		{
			"buffer":0,
			"byteLength":64,
			"byteOffset":6599660,
			"target":34962
		},
		{
			"buffer":0,
			"byteLength":48,
			"byteOffset":6599724,
			"target":34962
		},
		{
			"buffer":0,
			"byteLength":48,
			"byteOffset":6599772,
			"target":34962
		},
		{
			"buffer":0,
			"byteLength":32,
			"byteOffset":6599820,
			"target":34962
		},
		{
			"buffer":0,
			"byteLength":64,
			"byteOffset":6599852,
			"target":34962
		},
		{
			"buffer":0,
			"byteLength":192,
			"byteOffset":6599916,
			"target":34962
		},
		{
			"buffer":0,
			"byteLength":192,
			"byteOffset":6600108,
			"target":34962
		},
		{
			"buffer":0,
			"byteLength":128,
			"byteOffset":6600300,
			"target":34962
		},
		{
			"buffer":0,
			"byteLength":256,
			"byteOffset":6600428,
			"target":34962
		},
		{
			"buffer":0,
			"byteLength":672,
			"byteOffset":6600684,
			"target":34962
		},
		{
			"buffer":0,
			"byteLength":672,
			"byteOffset":6601356,
			"target":34962
		},
		{
			"buffer":0,
			"byteLength":448,
			"byteOffset":6602028,
			"target":34962
		},
		{
			"buffer":0,
			"byteLength":96,
			"byteOffset":6602476,
			"target":34962
		},
		{
			"buffer":0,
			"byteLength":96,
			"byteOffset":6602572,
			"target":34962
		},
		{
			"buffer":0,
			"byteLength":64,
			"byteOffset":6602668,
			"target":34962
		}
	],
	"samplers":[
		{
			"magFilter":9729,
			"minFilter":9987
		}
	],
	"buffers":[
		{
			"byteLength":6602732,
			"uri":"ForestModules-6922d3c24be21fac7606cc930a7e1e92.bin"
		}
	]
}
