{
	"asset":{
		"generator":"Khronos glTF Blender I/O v4.3.47",
		"version":"2.0"
	},
	"scene":0,
	"scenes":[
		{
			"name":"Scene",
			"nodes":[
				0,
				1,
				2
			]
		}
	],
	"nodes":[
		{
			"mesh":0,
			"name":"Cube",
			"scale":[
				-0.08635801821947098,
				-0.08635801821947098,
				-0.08635801821947098
			],
			"translation":[
				0,
				0.06909462809562683,
				0
			]
		},
		{
			"mesh":1,
			"name":"Cube.001",
			"scale":[
				0.0764613151550293,
				0.0764613151550293,
				0.0764613151550293
			],
			"translation":[
				0.07903742045164108,
				0.05967698618769646,
				0
			]
		},
		{
			"mesh":2,
			"name":"Cube.002",
			"scale":[
				0.06680268049240112,
				0.06680268049240112,
				0.06680268049240112
			],
			"translation":[
				-0.11629097908735275,
				0.049176979809999466,
				0.014397911727428436
			]
		}
	],
	"materials":[
		{
			"doubleSided":true,
			"name":"Material.001",
			"pbrMetallicRoughness":{
				"baseColorFactor":[
					0.30291545391082764,
					0.8003778457641602,
					0.016259994357824326,
					1
				],
				"metallicFactor":0,
				"roughnessFactor":0.5
			}
		}
	],
	"meshes":[
		{
			"name":"Cube.002",
			"primitives":[
				{
					"attributes":{
						"POSITION":0,
						"NORMAL":1,
						"TEXCOORD_0":2,
						"TANGENT":3
					},
					"indices":4,
					"material":0
				}
			]
		},
		{
			"name":"Cube.003",
			"primitives":[
				{
					"attributes":{
						"POSITION":5,
						"NORMAL":6,
						"TEXCOORD_0":7,
						"TANGENT":8
					},
					"indices":9,
					"material":0
				}
			]
		},
		{
			"name":"Cube.004",
			"primitives":[
				{
					"attributes":{
						"POSITION":10,
						"NORMAL":11,
						"TEXCOORD_0":12,
						"TANGENT":13
					},
					"indices":14,
					"material":0
				}
			]
		}
	],
	"accessors":[
		{
			"bufferView":0,
			"componentType":5126,
			"count":88,
			"max":[
				0.9207168221473694,
				1,
				0.7465341091156006
			],
			"min":[
				-3.9817733764648438,
				-31.420522689819336,
				-5.651388645172119
			],
			"type":"VEC3"
		},
		{
			"bufferView":1,
			"componentType":5126,
			"count":88,
			"type":"VEC3"
		},
		{
			"bufferView":2,
			"componentType":5126,
			"count":88,
			"type":"VEC2"
		},
		{
			"bufferView":3,
			"componentType":5126,
			"count":88,
			"type":"VEC4"
		},
		{
			"bufferView":4,
			"componentType":5123,
			"count":132,
			"type":"SCALAR"
		},
		{
			"bufferView":5,
			"componentType":5126,
			"count":88,
			"max":[
				0.07689070701599121,
				27.534896850585938,
				0.08791160583496094
			],
			"min":[
				-4.842329025268555,
				-1,
				-4.55874490737915
			],
			"type":"VEC3"
		},
		{
			"bufferView":6,
			"componentType":5126,
			"count":88,
			"type":"VEC3"
		},
		{
			"bufferView":7,
			"componentType":5126,
			"count":88,
			"type":"VEC2"
		},
		{
			"bufferView":8,
			"componentType":5126,
			"count":88,
			"type":"VEC4"
		},
		{
			"bufferView":9,
			"componentType":5123,
			"count":132,
			"type":"SCALAR"
		},
		{
			"bufferView":10,
			"componentType":5126,
			"count":88,
			"max":[
				7.167697906494141,
				30.13762664794922,
				-0.3483355939388275
			],
			"min":[
				0.9959876537322998,
				-0.6418279409408569,
				-3.731480836868286
			],
			"type":"VEC3"
		},
		{
			"bufferView":11,
			"componentType":5126,
			"count":88,
			"type":"VEC3"
		},
		{
			"bufferView":12,
			"componentType":5126,
			"count":88,
			"type":"VEC2"
		},
		{
			"bufferView":13,
			"componentType":5126,
			"count":88,
			"type":"VEC4"
		},
		{
			"bufferView":14,
			"componentType":5123,
			"count":132,
			"type":"SCALAR"
		}
	],
	"bufferViews":[
		{
			"buffer":0,
			"byteLength":1056,
			"byteOffset":0,
			"target":34962
		},
		{
			"buffer":0,
			"byteLength":1056,
			"byteOffset":1056,
			"target":34962
		},
		{
			"buffer":0,
			"byteLength":704,
			"byteOffset":2112,
			"target":34962
		},
		{
			"buffer":0,
			"byteLength":1408,
			"byteOffset":2816,
			"target":34962
		},
		{
			"buffer":0,
			"byteLength":264,
			"byteOffset":4224,
			"target":34963
		},
		{
			"buffer":0,
			"byteLength":1056,
			"byteOffset":4488,
			"target":34962
		},
		{
			"buffer":0,
			"byteLength":1056,
			"byteOffset":5544,
			"target":34962
		},
		{
			"buffer":0,
			"byteLength":704,
			"byteOffset":6600,
			"target":34962
		},
		{
			"buffer":0,
			"byteLength":1408,
			"byteOffset":7304,
			"target":34962
		},
		{
			"buffer":0,
			"byteLength":264,
			"byteOffset":8712,
			"target":34963
		},
		{
			"buffer":0,
			"byteLength":1056,
			"byteOffset":8976,
			"target":34962
		},
		{
			"buffer":0,
			"byteLength":1056,
			"byteOffset":10032,
			"target":34962
		},
		{
			"buffer":0,
			"byteLength":704,
			"byteOffset":11088,
			"target":34962
		},
		{
			"buffer":0,
			"byteLength":1408,
			"byteOffset":11792,
			"target":34962
		},
		{
			"buffer":0,
			"byteLength":264,
			"byteOffset":13200,
			"target":34963
		}
	],
	"buffers":[
		{
			"byteLength":13464,
			"uri":"Grass-a101c9f3c868f98077f5443d745a106c.bin"
		}
	]
}
