{
	"asset":{
		"generator":"Khronos glTF Blender I/O v4.3.47",
		"version":"2.0"
	},
	"scene":0,
	"scenes":[
		{
			"name":"Scene",
			"nodes":[
				0
			]
		}
	],
	"nodes":[
		{
			"mesh":0,
			"name":"Plant",
			"rotation":[
				0,
				0,
				0.7071068286895752,
				0.7071068286895752
			],
			"scale":[
				0.07585954666137695,
				1,
				0.3131070137023926
			],
			"translation":[
				0.8393216729164124,
				0.9211797714233398,
				0.00025534629821777344
			]
		}
	],
	"materials":[
		{
			"doubleSided":true,
			"name":"Black",
			"pbrMetallicRoughness":{
				"baseColorFactor":[
					0,
					0,
					0,
					1
				],
				"metallicFactor":0
			}
		},
		{
			"doubleSided":true,
			"name":"Green"
		},
		{
			"doubleSided":true,
			"name":"Brown",
			"pbrMetallicRoughness":{
				"baseColorFactor":[
					0.1913490891456604,
					0.05509576201438904,
					0.0034090904518961906,
					1
				],
				"metallicFactor":0,
				"roughnessFactor":0.5
			}
		},
		{
			"doubleSided":true,
			"name":"Material",
			"pbrMetallicRoughness":{
				"baseColorFactor":[
					0,
					0.06892554461956024,
					0.0016666323645040393,
					1
				],
				"metallicFactor":0,
				"roughnessFactor":0.5
			}
		}
	],
	"meshes":[
		{
			"name":"Plane.001",
			"primitives":[
				{
					"attributes":{
						"POSITION":0,
						"NORMAL":1,
						"TEXCOORD_0":2
					},
					"indices":3,
					"material":0
				},
				{
					"attributes":{
						"POSITION":4,
						"NORMAL":5,
						"TEXCOORD_0":6
					},
					"indices":7,
					"material":1
				},
				{
					"attributes":{
						"POSITION":8,
						"NORMAL":9,
						"TEXCOORD_0":10
					},
					"indices":11,
					"material":2
				},
				{
					"attributes":{
						"POSITION":12,
						"NORMAL":13,
						"TEXCOORD_0":14
					},
					"indices":15,
					"material":3
				}
			]
		}
	],
	"accessors":[
		{
			"bufferView":0,
			"componentType":5126,
			"count":102,
			"max":[
				4.899350166320801,
				0.14779752492904663,
				1.4030067920684814
			],
			"min":[
				-0.5627716183662415,
				0,
				-1.396600604057312
			],
			"type":"VEC3"
		},
		{
			"bufferView":1,
			"componentType":5126,
			"count":102,
			"type":"VEC3"
		},
		{
			"bufferView":2,
			"componentType":5126,
			"count":102,
			"type":"VEC2"
		},
		{
			"bufferView":3,
			"componentType":5123,
			"count":336,
			"type":"SCALAR"
		},
		{
			"bufferView":4,
			"componentType":5126,
			"count":476,
			"max":[
				18.813554763793945,
				1.6788280010223389,
				2.680396318435669
			],
			"min":[
				-10.027559280395508,
				-0.00018453598022460938,
				-2.682027578353882
			],
			"type":"VEC3"
		},
		{
			"bufferView":5,
			"componentType":5126,
			"count":476,
			"type":"VEC3"
		},
		{
			"bufferView":6,
			"componentType":5126,
			"count":476,
			"type":"VEC2"
		},
		{
			"bufferView":7,
			"componentType":5123,
			"count":2394,
			"type":"SCALAR"
		},
		{
			"bufferView":8,
			"componentType":5126,
			"count":221,
			"max":[
				21.857481002807617,
				1.6458239555358887,
				1.020574927330017
			],
			"min":[
				-2.807399272918701,
				0.519517183303833,
				-1.3451212644577026
			],
			"type":"VEC3"
		},
		{
			"bufferView":9,
			"componentType":5126,
			"count":221,
			"type":"VEC3"
		},
		{
			"bufferView":10,
			"componentType":5126,
			"count":221,
			"type":"VEC2"
		},
		{
			"bufferView":11,
			"componentType":5123,
			"count":774,
			"type":"SCALAR"
		},
		{
			"bufferView":12,
			"componentType":5126,
			"count":39,
			"max":[
				20.114255905151367,
				1.6036922931671143,
				-0.9429000616073608
			],
			"min":[
				13.207364082336426,
				1.155829668045044,
				-2.6289916038513184
			],
			"type":"VEC3"
		},
		{
			"bufferView":13,
			"componentType":5126,
			"count":39,
			"type":"VEC3"
		},
		{
			"bufferView":14,
			"componentType":5126,
			"count":39,
			"type":"VEC2"
		},
		{
			"bufferView":15,
			"componentType":5123,
			"count":144,
			"type":"SCALAR"
		}
	],
	"bufferViews":[
		{
			"buffer":0,
			"byteLength":1224,
			"byteOffset":0,
			"target":34962
		},
		{
			"buffer":0,
			"byteLength":1224,
			"byteOffset":1224,
			"target":34962
		},
		{
			"buffer":0,
			"byteLength":816,
			"byteOffset":2448,
			"target":34962
		},
		{
			"buffer":0,
			"byteLength":672,
			"byteOffset":3264,
			"target":34963
		},
		{
			"buffer":0,
			"byteLength":5712,
			"byteOffset":3936,
			"target":34962
		},
		{
			"buffer":0,
			"byteLength":5712,
			"byteOffset":9648,
			"target":34962
		},
		{
			"buffer":0,
			"byteLength":3808,
			"byteOffset":15360,
			"target":34962
		},
		{
			"buffer":0,
			"byteLength":4788,
			"byteOffset":19168,
			"target":34963
		},
		{
			"buffer":0,
			"byteLength":2652,
			"byteOffset":23956,
			"target":34962
		},
		{
			"buffer":0,
			"byteLength":2652,
			"byteOffset":26608,
			"target":34962
		},
		{
			"buffer":0,
			"byteLength":1768,
			"byteOffset":29260,
			"target":34962
		},
		{
			"buffer":0,
			"byteLength":1548,
			"byteOffset":31028,
			"target":34963
		},
		{
			"buffer":0,
			"byteLength":468,
			"byteOffset":32576,
			"target":34962
		},
		{
			"buffer":0,
			"byteLength":468,
			"byteOffset":33044,
			"target":34962
		},
		{
			"buffer":0,
			"byteLength":312,
			"byteOffset":33512,
			"target":34962
		},
		{
			"buffer":0,
			"byteLength":288,
			"byteOffset":33824,
			"target":34963
		}
	],
	"buffers":[
		{
			"byteLength":34112,
			"uri":"GrassSlime-1864f26008dadc6295a32a9654ea250e.bin"
		}
	]
}
