{
	"asset":{
		"generator":"Khronos glTF Blender I/O v4.3.47",
		"version":"2.0"
	},
	"scene":0,
	"scenes":[
		{
			"name":"Scene",
			"nodes":[
				0,
				1,
				2
			]
		}
	],
	"nodes":[
		{
			"mesh":0,
			"name":"IceCube",
			"translation":[
				0,
				1,
				0
			]
		},
		{
			"mesh":1,
			"name":"Shades",
			"scale":[
				1,
				1,
				1.0405207872390747
			],
			"translation":[
				1,
				0.696183979511261,
				0
			]
		},
		{
			"mesh":2,
			"name":"Plane",
			"rotation":[
				0,
				0,
				0.7071066498756409,
				0.70710688829422
			],
			"scale":[
				-0.07308584451675415,
				-1.5015368461608887,
				-0.5660868883132935
			],
			"translation":[
				1.003978967666626,
				0.6862486600875854,
				0.002434913069009781
			]
		}
	],
	"materials":[
		{
			"doubleSided":true,
			"name":"Material"
		},
		{
			"doubleSided":true,
			"name":"Material.001",
			"pbrMetallicRoughness":{
				"baseColorFactor":[
					0.0020472435280680656,
					0.08571155369281769,
					0.8002434968948364,
					1
				],
				"metallicFactor":0,
				"roughnessFactor":0.5
			}
		},
		{
			"doubleSided":true,
			"name":"Black",
			"pbrMetallicRoughness":{
				"baseColorFactor":[
					0,
					0,
					0,
					1
				],
				"metallicFactor":0,
				"roughnessFactor":0.5
			}
		}
	],
	"meshes":[
		{
			"name":"Cube.001",
			"primitives":[
				{
					"attributes":{
						"POSITION":0,
						"NORMAL":1,
						"TEXCOORD_0":2,
						"TANGENT":3
					},
					"indices":4,
					"material":0
				},
				{
					"attributes":{
						"POSITION":5,
						"NORMAL":6,
						"TEXCOORD_0":7,
						"TANGENT":8
					},
					"indices":9,
					"material":1
				}
			]
		},
		{
			"name":"Cube.002",
			"primitives":[
				{
					"attributes":{
						"POSITION":10,
						"NORMAL":11,
						"TEXCOORD_0":12
					},
					"indices":13,
					"material":2
				}
			]
		},
		{
			"name":"Plane",
			"primitives":[
				{
					"attributes":{
						"POSITION":14,
						"NORMAL":15,
						"TEXCOORD_0":16,
						"TANGENT":17
					},
					"indices":18,
					"material":2
				}
			]
		}
	],
	"accessors":[
		{
			"bufferView":0,
			"componentType":5126,
			"count":43,
			"max":[
				1,
				1,
				1
			],
			"min":[
				-1,
				-1,
				-1
			],
			"type":"VEC3"
		},
		{
			"bufferView":1,
			"componentType":5126,
			"count":43,
			"type":"VEC3"
		},
		{
			"bufferView":2,
			"componentType":5126,
			"count":43,
			"type":"VEC2"
		},
		{
			"bufferView":3,
			"componentType":5126,
			"count":43,
			"type":"VEC4"
		},
		{
			"bufferView":4,
			"componentType":5123,
			"count":132,
			"type":"SCALAR"
		},
		{
			"bufferView":5,
			"componentType":5126,
			"count":96,
			"max":[
				0.31222015619277954,
				0.18481844663619995,
				0.31222015619277954
			],
			"min":[
				-0.31222015619277954,
				-0.43962186574935913,
				-0.31222015619277954
			],
			"type":"VEC3"
		},
		{
			"bufferView":6,
			"componentType":5126,
			"count":96,
			"type":"VEC3"
		},
		{
			"bufferView":7,
			"componentType":5126,
			"count":96,
			"type":"VEC2"
		},
		{
			"bufferView":8,
			"componentType":5126,
			"count":96,
			"type":"VEC4"
		},
		{
			"bufferView":9,
			"componentType":5123,
			"count":144,
			"type":"SCALAR"
		},
		{
			"bufferView":10,
			"componentType":5126,
			"count":185,
			"max":[
				0.025915682315826416,
				1,
				1
			],
			"min":[
				-1.4696463346481323,
				0.41005390882492065,
				-1
			],
			"type":"VEC3"
		},
		{
			"bufferView":11,
			"componentType":5126,
			"count":185,
			"type":"VEC3"
		},
		{
			"bufferView":12,
			"componentType":5126,
			"count":185,
			"type":"VEC2"
		},
		{
			"bufferView":13,
			"componentType":5123,
			"count":714,
			"type":"SCALAR"
		},
		{
			"bufferView":14,
			"componentType":5126,
			"count":23,
			"max":[
				3.0938947200775146,
				0.00015088336658664048,
				1.0325396060943604
			],
			"min":[
				-0.47653621435165405,
				-1.5565069233502982e-09,
				-1.0325396060943604
			],
			"type":"VEC3"
		},
		{
			"bufferView":15,
			"componentType":5126,
			"count":23,
			"type":"VEC3"
		},
		{
			"bufferView":16,
			"componentType":5126,
			"count":23,
			"type":"VEC2"
		},
		{
			"bufferView":17,
			"componentType":5126,
			"count":23,
			"type":"VEC4"
		},
		{
			"bufferView":18,
			"componentType":5123,
			"count":69,
			"type":"SCALAR"
		}
	],
	"bufferViews":[
		{
			"buffer":0,
			"byteLength":516,
			"byteOffset":0,
			"target":34962
		},
		{
			"buffer":0,
			"byteLength":516,
			"byteOffset":516,
			"target":34962
		},
		{
			"buffer":0,
			"byteLength":344,
			"byteOffset":1032,
			"target":34962
		},
		{
			"buffer":0,
			"byteLength":688,
			"byteOffset":1376,
			"target":34962
		},
		{
			"buffer":0,
			"byteLength":264,
			"byteOffset":2064,
			"target":34963
		},
		{
			"buffer":0,
			"byteLength":1152,
			"byteOffset":2328,
			"target":34962
		},
		{
			"buffer":0,
			"byteLength":1152,
			"byteOffset":3480,
			"target":34962
		},
		{
			"buffer":0,
			"byteLength":768,
			"byteOffset":4632,
			"target":34962
		},
		{
			"buffer":0,
			"byteLength":1536,
			"byteOffset":5400,
			"target":34962
		},
		{
			"buffer":0,
			"byteLength":288,
			"byteOffset":6936,
			"target":34963
		},
		{
			"buffer":0,
			"byteLength":2220,
			"byteOffset":7224,
			"target":34962
		},
		{
			"buffer":0,
			"byteLength":2220,
			"byteOffset":9444,
			"target":34962
		},
		{
			"buffer":0,
			"byteLength":1480,
			"byteOffset":11664,
			"target":34962
		},
		{
			"buffer":0,
			"byteLength":1428,
			"byteOffset":13144,
			"target":34963
		},
		{
			"buffer":0,
			"byteLength":276,
			"byteOffset":14572,
			"target":34962
		},
		{
			"buffer":0,
			"byteLength":276,
			"byteOffset":14848,
			"target":34962
		},
		{
			"buffer":0,
			"byteLength":184,
			"byteOffset":15124,
			"target":34962
		},
		{
			"buffer":0,
			"byteLength":368,
			"byteOffset":15308,
			"target":34962
		},
		{
			"buffer":0,
			"byteLength":138,
			"byteOffset":15676,
			"target":34963
		}
	],
	"buffers":[
		{
			"byteLength":15816,
			"uri":"IceSlime-13824f73cf2a1c085b65d2af48168c38.bin"
		}
	]
}
