{
	"asset":{
		"generator":"Khronos glTF Blender I/O v4.3.47",
		"version":"2.0"
	},
	"scene":0,
	"scenes":[
		{
			"name":"Scene",
			"nodes":[
				0
			]
		}
	],
	"nodes":[
		{
			"mesh":0,
			"name":"SlimeBody",
			"translation":[
				0,
				0.4139488637447357,
				0
			]
		}
	],
	"materials":[
		{
			"doubleSided":true,
			"name":"Material.001"
		},
		{
			"doubleSided":true,
			"name":"Black",
			"pbrMetallicRoughness":{
				"baseColorFactor":[
					0,
					0,
					0,
					1
				],
				"metallicFactor":0,
				"roughnessFactor":0.5
			}
		},
		{
			"doubleSided":true,
			"name":"Material.002",
			"pbrMetallicRoughness":{
				"baseColorFactor":[
					0,
					0,
					0,
					1
				],
				"metallicFactor":0,
				"roughnessFactor":0.5
			}
		}
	],
	"meshes":[
		{
			"name":"Cube.001",
			"primitives":[
				{
					"attributes":{
						"POSITION":0,
						"NORMAL":1,
						"TEXCOORD_0":2
					},
					"indices":3,
					"material":0
				},
				{
					"attributes":{
						"POSITION":4,
						"NORMAL":5,
						"TEXCOORD_0":6
					},
					"indices":7,
					"material":1
				},
				{
					"attributes":{
						"POSITION":8,
						"NORMAL":9,
						"TEXCOORD_0":10
					},
					"indices":11,
					"material":2
				}
			]
		}
	],
	"accessors":[
		{
			"bufferView":0,
			"componentType":5126,
			"count":441,
			"max":[
				0.8259578943252563,
				0.8395062685012817,
				0.8395062685012817
			],
			"min":[
				-0.8259372711181641,
				-0.3943433165550232,
				-0.8395062685012817
			],
			"type":"VEC3"
		},
		{
			"bufferView":1,
			"componentType":5126,
			"count":441,
			"type":"VEC3"
		},
		{
			"bufferView":2,
			"componentType":5126,
			"count":441,
			"type":"VEC2"
		},
		{
			"bufferView":3,
			"componentType":5123,
			"count":2304,
			"type":"SCALAR"
		},
		{
			"bufferView":4,
			"componentType":5126,
			"count":103,
			"max":[
				0.7878145575523376,
				0.3617013692855835,
				0.3144077658653259
			],
			"min":[
				-0.14470848441123962,
				-0.006146073341369629,
				-0.3144078254699707
			],
			"type":"VEC3"
		},
		{
			"bufferView":5,
			"componentType":5126,
			"count":103,
			"type":"VEC3"
		},
		{
			"bufferView":6,
			"componentType":5126,
			"count":103,
			"type":"VEC2"
		},
		{
			"bufferView":7,
			"componentType":5123,
			"count":324,
			"type":"SCALAR"
		},
		{
			"bufferView":8,
			"componentType":5126,
			"count":21,
			"max":[
				0.8267441391944885,
				0.11056308448314667,
				0.16115298867225647
			],
			"min":[
				0.8103976845741272,
				0.011091988533735275,
				-0.1614277958869934
			],
			"type":"VEC3"
		},
		{
			"bufferView":9,
			"componentType":5126,
			"count":21,
			"type":"VEC3"
		},
		{
			"bufferView":10,
			"componentType":5126,
			"count":21,
			"type":"VEC2"
		},
		{
			"bufferView":11,
			"componentType":5123,
			"count":72,
			"type":"SCALAR"
		}
	],
	"bufferViews":[
		{
			"buffer":0,
			"byteLength":5292,
			"byteOffset":0,
			"target":34962
		},
		{
			"buffer":0,
			"byteLength":5292,
			"byteOffset":5292,
			"target":34962
		},
		{
			"buffer":0,
			"byteLength":3528,
			"byteOffset":10584,
			"target":34962
		},
		{
			"buffer":0,
			"byteLength":4608,
			"byteOffset":14112,
			"target":34963
		},
		{
			"buffer":0,
			"byteLength":1236,
			"byteOffset":18720,
			"target":34962
		},
		{
			"buffer":0,
			"byteLength":1236,
			"byteOffset":19956,
			"target":34962
		},
		{
			"buffer":0,
			"byteLength":824,
			"byteOffset":21192,
			"target":34962
		},
		{
			"buffer":0,
			"byteLength":648,
			"byteOffset":22016,
			"target":34963
		},
		{
			"buffer":0,
			"byteLength":252,
			"byteOffset":22664,
			"target":34962
		},
		{
			"buffer":0,
			"byteLength":252,
			"byteOffset":22916,
			"target":34962
		},
		{
			"buffer":0,
			"byteLength":168,
			"byteOffset":23168,
			"target":34962
		},
		{
			"buffer":0,
			"byteLength":144,
			"byteOffset":23336,
			"target":34963
		}
	],
	"buffers":[
		{
			"byteLength":23480,
			"uri":"NeutralSlime-8fdd4bedd764b5cf17dd7c8ae10baa95.bin"
		}
	]
}
