{
	"asset":{
		"generator":"Khronos glTF Blender I/O v4.3.47",
		"version":"2.0"
	},
	"scene":0,
	"scenes":[
		{
			"name":"Scene",
			"nodes":[
				0
			]
		}
	],
	"nodes":[
		{
			"mesh":0,
			"name":"Body",
			"scale":[
				1,
				0.6833972334861755,
				1
			],
			"translation":[
				0,
				0.5044177174568176,
				0
			]
		}
	],
	"materials":[
		{
			"doubleSided":true,
			"name":"Green"
		},
		{
			"doubleSided":true,
			"name":"Material",
			"pbrMetallicRoughness":{
				"baseColorFactor":[
					0.02027479186654091,
					0.11095501482486725,
					0.03028816729784012,
					1
				],
				"metallicFactor":0,
				"roughnessFactor":8
			}
		},
		{
			"doubleSided":true,
			"name":"Black",
			"pbrMetallicRoughness":{
				"baseColorFactor":[
					0,
					0,
					0,
					1
				],
				"metallicFactor":0,
				"roughnessFactor":0.5
			}
		}
	],
	"meshes":[
		{
			"name":"Cube.001",
			"primitives":[
				{
					"attributes":{
						"POSITION":0,
						"NORMAL":1,
						"TEXCOORD_0":2,
						"TANGENT":3
					},
					"indices":4,
					"material":0
				},
				{
					"attributes":{
						"POSITION":5,
						"NORMAL":6,
						"TEXCOORD_0":7,
						"TANGENT":8
					},
					"indices":9,
					"material":1
				},
				{
					"attributes":{
						"POSITION":10,
						"NORMAL":11,
						"TEXCOORD_0":12,
						"TANGENT":13
					},
					"indices":14,
					"material":2
				}
			]
		}
	],
	"accessors":[
		{
			"bufferView":0,
			"componentType":5126,
			"count":441,
			"max":[
				0.8015922904014587,
				1.5350748300552368,
				0.8015922904014587
			],
			"min":[
				-0.8015923500061035,
				-0.6858637928962708,
				-0.8015922904014587
			],
			"type":"VEC3"
		},
		{
			"bufferView":1,
			"componentType":5126,
			"count":441,
			"type":"VEC3"
		},
		{
			"bufferView":2,
			"componentType":5126,
			"count":441,
			"type":"VEC2"
		},
		{
			"bufferView":3,
			"componentType":5126,
			"count":441,
			"type":"VEC4"
		},
		{
			"bufferView":4,
			"componentType":5123,
			"count":2304,
			"type":"SCALAR"
		},
		{
			"bufferView":5,
			"componentType":5126,
			"count":250,
			"max":[
				0.17350593209266663,
				1.5795578956604004,
				0.17350593209266663
			],
			"min":[
				-0.6088001132011414,
				-0.2041541486978531,
				-0.4335006773471832
			],
			"type":"VEC3"
		},
		{
			"bufferView":6,
			"componentType":5126,
			"count":250,
			"type":"VEC3"
		},
		{
			"bufferView":7,
			"componentType":5126,
			"count":250,
			"type":"VEC2"
		},
		{
			"bufferView":8,
			"componentType":5126,
			"count":250,
			"type":"VEC4"
		},
		{
			"bufferView":9,
			"componentType":5123,
			"count":1152,
			"type":"SCALAR"
		},
		{
			"bufferView":10,
			"componentType":5126,
			"count":57,
			"max":[
				0.8057292699813843,
				0.4092232286930084,
				0.29818564653396606
			],
			"min":[
				0.6876881718635559,
				-0.05675652250647545,
				-0.29818564653396606
			],
			"type":"VEC3"
		},
		{
			"bufferView":11,
			"componentType":5126,
			"count":57,
			"type":"VEC3"
		},
		{
			"bufferView":12,
			"componentType":5126,
			"count":57,
			"type":"VEC2"
		},
		{
			"bufferView":13,
			"componentType":5126,
			"count":57,
			"type":"VEC4"
		},
		{
			"bufferView":14,
			"componentType":5123,
			"count":192,
			"type":"SCALAR"
		}
	],
	"bufferViews":[
		{
			"buffer":0,
			"byteLength":5292,
			"byteOffset":0,
			"target":34962
		},
		{
			"buffer":0,
			"byteLength":5292,
			"byteOffset":5292,
			"target":34962
		},
		{
			"buffer":0,
			"byteLength":3528,
			"byteOffset":10584,
			"target":34962
		},
		{
			"buffer":0,
			"byteLength":7056,
			"byteOffset":14112,
			"target":34962
		},
		{
			"buffer":0,
			"byteLength":4608,
			"byteOffset":21168,
			"target":34963
		},
		{
			"buffer":0,
			"byteLength":3000,
			"byteOffset":25776,
			"target":34962
		},
		{
			"buffer":0,
			"byteLength":3000,
			"byteOffset":28776,
			"target":34962
		},
		{
			"buffer":0,
			"byteLength":2000,
			"byteOffset":31776,
			"target":34962
		},
		{
			"buffer":0,
			"byteLength":4000,
			"byteOffset":33776,
			"target":34962
		},
		{
			"buffer":0,
			"byteLength":2304,
			"byteOffset":37776,
			"target":34963
		},
		{
			"buffer":0,
			"byteLength":684,
			"byteOffset":40080,
			"target":34962
		},
		{
			"buffer":0,
			"byteLength":684,
			"byteOffset":40764,
			"target":34962
		},
		{
			"buffer":0,
			"byteLength":456,
			"byteOffset":41448,
			"target":34962
		},
		{
			"buffer":0,
			"byteLength":912,
			"byteOffset":41904,
			"target":34962
		},
		{
			"buffer":0,
			"byteLength":384,
			"byteOffset":42816,
			"target":34963
		}
	],
	"buffers":[
		{
			"byteLength":43200,
			"uri":"PlantSlime-75b668aa7991a737b55f994bd2172afa.bin"
		}
	]
}
