{
	"asset":{
		"generator":"Khronos glTF Blender I/O v4.3.47",
		"version":"2.0"
	},
	"scene":0,
	"scenes":[
		{
			"name":"Scene",
			"nodes":[
				0,
				1
			]
		}
	],
	"nodes":[
		{
			"mesh":0,
			"name":"SlimeBody",
			"translation":[
				0,
				0.8316378593444824,
				0
			]
		},
		{
			"mesh":1,
			"name":"Circle",
			"rotation":[
				0.06663322448730469,
				-0.05974060669541359,
				-0.5762051343917847,
				0.8123907446861267
			],
			"scale":[
				0.1672859489917755,
				0.1672859638929367,
				0.1003715842962265
			],
			"translation":[
				0.7697503566741943,
				0.5947054028511047,
				0.18088972568511963
			]
		}
	],
	"animations":[
		{
			"channels":[
				{
					"sampler":0,
					"target":{
						"node":0,
						"path":"translation"
					}
				},
				{
					"sampler":1,
					"target":{
						"node":0,
						"path":"rotation"
					}
				},
				{
					"sampler":2,
					"target":{
						"node":0,
						"path":"scale"
					}
				}
			],
			"name":"SlimeBodyAction",
			"samplers":[
				{
					"input":9,
					"interpolation":"LINEAR",
					"output":10
				},
				{
					"input":11,
					"interpolation":"STEP",
					"output":12
				},
				{
					"input":9,
					"interpolation":"LINEAR",
					"output":13
				}
			]
		},
		{
			"channels":[
				{
					"sampler":0,
					"target":{
						"node":1,
						"path":"translation"
					}
				},
				{
					"sampler":1,
					"target":{
						"node":1,
						"path":"rotation"
					}
				},
				{
					"sampler":2,
					"target":{
						"node":1,
						"path":"scale"
					}
				}
			],
			"name":"walking",
			"samplers":[
				{
					"input":9,
					"interpolation":"LINEAR",
					"output":14
				},
				{
					"input":9,
					"interpolation":"LINEAR",
					"output":15
				},
				{
					"input":9,
					"interpolation":"LINEAR",
					"output":16
				}
			]
		}
	],
	"meshes":[
		{
			"name":"Cube.001",
			"primitives":[
				{
					"attributes":{
						"POSITION":0,
						"NORMAL":1,
						"TEXCOORD_0":2,
						"TANGENT":3
					},
					"indices":4
				}
			]
		},
		{
			"name":"Circle.001",
			"primitives":[
				{
					"attributes":{
						"POSITION":5,
						"NORMAL":6,
						"TEXCOORD_0":7
					},
					"indices":8
				}
			]
		}
	],
	"accessors":[
		{
			"bufferView":0,
			"componentType":5126,
			"count":98304,
			"max":[
				0.8299042582511902,
				0.29510313272476196,
				0.8299042582511902
			],
			"min":[
				-0.829904317855835,
				-0.838473916053772,
				-0.8299042582511902
			],
			"type":"VEC3"
		},
		{
			"bufferView":1,
			"componentType":5126,
			"count":98304,
			"type":"VEC3"
		},
		{
			"bufferView":2,
			"componentType":5126,
			"count":98304,
			"type":"VEC2"
		},
		{
			"bufferView":3,
			"componentType":5126,
			"count":98304,
			"type":"VEC4"
		},
		{
			"bufferView":4,
			"componentType":5125,
			"count":147456,
			"type":"SCALAR"
		},
		{
			"bufferView":5,
			"componentType":5126,
			"count":4480,
			"max":[
				1.1481932401657104,
				0.04387819394469261,
				1.0987135171890259
			],
			"min":[
				-1.1165823936462402,
				-0.7097358703613281,
				-4.571084499359131
			],
			"type":"VEC3"
		},
		{
			"bufferView":6,
			"componentType":5126,
			"count":4480,
			"type":"VEC3"
		},
		{
			"bufferView":7,
			"componentType":5126,
			"count":4480,
			"type":"VEC2"
		},
		{
			"bufferView":8,
			"componentType":5123,
			"count":6888,
			"type":"SCALAR"
		},
		{
			"bufferView":9,
			"componentType":5126,
			"count":30,
			"max":[
				1.25
			],
			"min":[
				0.041666666666666664
			],
			"type":"SCALAR"
		},
		{
			"bufferView":10,
			"componentType":5126,
			"count":30,
			"type":"VEC3"
		},
		{
			"bufferView":11,
			"componentType":5126,
			"count":2,
			"max":[
				1.25
			],
			"min":[
				0.041666666666666664
			],
			"type":"SCALAR"
		},
		{
			"bufferView":12,
			"componentType":5126,
			"count":2,
			"type":"VEC4"
		},
		{
			"bufferView":13,
			"componentType":5126,
			"count":30,
			"type":"VEC3"
		},
		{
			"bufferView":14,
			"componentType":5126,
			"count":30,
			"type":"VEC3"
		},
		{
			"bufferView":15,
			"componentType":5126,
			"count":30,
			"type":"VEC4"
		},
		{
			"bufferView":16,
			"componentType":5126,
			"count":30,
			"type":"VEC3"
		}
	],
	"bufferViews":[
		{
			"buffer":0,
			"byteLength":1179648,
			"byteOffset":0,
			"target":34962
		},
		{
			"buffer":0,
			"byteLength":1179648,
			"byteOffset":1179648,
			"target":34962
		},
		{
			"buffer":0,
			"byteLength":786432,
			"byteOffset":2359296,
			"target":34962
		},
		{
			"buffer":0,
			"byteLength":1572864,
			"byteOffset":3145728,
			"target":34962
		},
		{
			"buffer":0,
			"byteLength":589824,
			"byteOffset":4718592,
			"target":34963
		},
		{
			"buffer":0,
			"byteLength":53760,
			"byteOffset":5308416,
			"target":34962
		},
		{
			"buffer":0,
			"byteLength":53760,
			"byteOffset":5362176,
			"target":34962
		},
		{
			"buffer":0,
			"byteLength":35840,
			"byteOffset":5415936,
			"target":34962
		},
		{
			"buffer":0,
			"byteLength":13776,
			"byteOffset":5451776,
			"target":34963
		},
		{
			"buffer":0,
			"byteLength":120,
			"byteOffset":5465552
		},
		{
			"buffer":0,
			"byteLength":360,
			"byteOffset":5465672
		},
		{
			"buffer":0,
			"byteLength":8,
			"byteOffset":5466032
		},
		{
			"buffer":0,
			"byteLength":32,
			"byteOffset":5466040
		},
		{
			"buffer":0,
			"byteLength":360,
			"byteOffset":5466072
		},
		{
			"buffer":0,
			"byteLength":360,
			"byteOffset":5466432
		},
		{
			"buffer":0,
			"byteLength":480,
			"byteOffset":5466792
		},
		{
			"buffer":0,
			"byteLength":360,
			"byteOffset":5467272
		}
	],
	"buffers":[
		{
			"byteLength":5467632,
			"uri":"Slime3-c9ce6442eed166168199bf48c27f3d26.bin"
		}
	]
}
