{
	"asset":{
		"generator":"Khronos glTF Blender I/O v4.3.47",
		"version":"2.0"
	},
	"scene":0,
	"scenes":[
		{
			"name":"Scene",
			"nodes":[
				0
			]
		}
	],
	"nodes":[
		{
			"mesh":0,
			"name":"Slime",
			"scale":[
				1,
				0.9860000014305115,
				1
			],
			"translation":[
				0,
				2.9263646865729243e-05,
				0
			]
		}
	],
	"animations":[
		{
			"channels":[
				{
					"sampler":0,
					"target":{
						"node":0,
						"path":"translation"
					}
				},
				{
					"sampler":1,
					"target":{
						"node":0,
						"path":"rotation"
					}
				},
				{
					"sampler":2,
					"target":{
						"node":0,
						"path":"scale"
					}
				}
			],
			"name":"walk",
			"samplers":[
				{
					"input":15,
					"interpolation":"LINEAR",
					"output":16
				},
				{
					"input":17,
					"interpolation":"STEP",
					"output":18
				},
				{
					"input":15,
					"interpolation":"LINEAR",
					"output":19
				}
			]
		}
	],
	"materials":[
		{
			"doubleSided":true,
			"name":"Slime"
		},
		{
			"doubleSided":true,
			"name":"Material",
			"pbrMetallicRoughness":{
				"baseColorFactor":[
					0,
					0,
					0,
					1
				],
				"metallicFactor":0,
				"roughnessFactor":0.5
			}
		},
		{
			"doubleSided":true,
			"name":"Material.001",
			"pbrMetallicRoughness":{
				"baseColorFactor":[
					0.0659397542476654,
					0.0659397542476654,
					0.0659397542476654,
					1
				],
				"metallicFactor":0,
				"roughnessFactor":0.5
			}
		}
	],
	"meshes":[
		{
			"name":"Sphere.001",
			"primitives":[
				{
					"attributes":{
						"POSITION":0,
						"NORMAL":1,
						"TEXCOORD_0":2,
						"TANGENT":3
					},
					"indices":4,
					"material":0
				},
				{
					"attributes":{
						"POSITION":5,
						"NORMAL":6,
						"TEXCOORD_0":7,
						"TANGENT":8
					},
					"indices":9,
					"material":1
				},
				{
					"attributes":{
						"POSITION":10,
						"NORMAL":11,
						"TEXCOORD_0":12,
						"TANGENT":13
					},
					"indices":14,
					"material":2
				}
			]
		}
	],
	"accessors":[
		{
			"bufferView":0,
			"componentType":5126,
			"count":126976,
			"max":[
				1.053723692893982,
				1.5735445022583008,
				1.0537235736846924
			],
			"min":[
				-1.0537233352661133,
				-0.00038233763189055026,
				-1.0537238121032715
			],
			"type":"VEC3"
		},
		{
			"bufferView":1,
			"componentType":5126,
			"count":126976,
			"type":"VEC3"
		},
		{
			"bufferView":2,
			"componentType":5126,
			"count":126976,
			"type":"VEC2"
		},
		{
			"bufferView":3,
			"componentType":5126,
			"count":126976,
			"type":"VEC4"
		},
		{
			"bufferView":4,
			"componentType":5125,
			"count":190464,
			"type":"SCALAR"
		},
		{
			"bufferView":5,
			"componentType":5126,
			"count":60767,
			"max":[
				0.46112772822380066,
				1.1329306364059448,
				-0.8112272024154663
			],
			"min":[
				-0.461127907037735,
				0.4203082025051117,
				-1.0791572332382202
			],
			"type":"VEC3"
		},
		{
			"bufferView":6,
			"componentType":5126,
			"count":60767,
			"type":"VEC3"
		},
		{
			"bufferView":7,
			"componentType":5126,
			"count":60767,
			"type":"VEC2"
		},
		{
			"bufferView":8,
			"componentType":5126,
			"count":60767,
			"type":"VEC4"
		},
		{
			"bufferView":9,
			"componentType":5123,
			"count":92160,
			"type":"SCALAR"
		},
		{
			"bufferView":10,
			"componentType":5126,
			"count":240,
			"max":[
				0.19865962862968445,
				0.9253836870193481,
				0.20888279378414154
			],
			"min":[
				-0.19865962862968445,
				0.5076180696487427,
				-0.20888279378414154
			],
			"type":"VEC3"
		},
		{
			"bufferView":11,
			"componentType":5126,
			"count":240,
			"type":"VEC3"
		},
		{
			"bufferView":12,
			"componentType":5126,
			"count":240,
			"type":"VEC2"
		},
		{
			"bufferView":13,
			"componentType":5126,
			"count":240,
			"type":"VEC4"
		},
		{
			"bufferView":14,
			"componentType":5123,
			"count":240,
			"type":"SCALAR"
		},
		{
			"bufferView":15,
			"componentType":5126,
			"count":40,
			"max":[
				1.6666666666666667
			],
			"min":[
				0.041666666666666664
			],
			"type":"SCALAR"
		},
		{
			"bufferView":16,
			"componentType":5126,
			"count":40,
			"type":"VEC3"
		},
		{
			"bufferView":17,
			"componentType":5126,
			"count":2,
			"max":[
				1.6666666666666667
			],
			"min":[
				0.041666666666666664
			],
			"type":"SCALAR"
		},
		{
			"bufferView":18,
			"componentType":5126,
			"count":2,
			"type":"VEC4"
		},
		{
			"bufferView":19,
			"componentType":5126,
			"count":40,
			"type":"VEC3"
		}
	],
	"bufferViews":[
		{
			"buffer":0,
			"byteLength":1523712,
			"byteOffset":0,
			"target":34962
		},
		{
			"buffer":0,
			"byteLength":1523712,
			"byteOffset":1523712,
			"target":34962
		},
		{
			"buffer":0,
			"byteLength":1015808,
			"byteOffset":3047424,
			"target":34962
		},
		{
			"buffer":0,
			"byteLength":2031616,
			"byteOffset":4063232,
			"target":34962
		},
		{
			"buffer":0,
			"byteLength":761856,
			"byteOffset":6094848,
			"target":34963
		},
		{
			"buffer":0,
			"byteLength":729204,
			"byteOffset":6856704,
			"target":34962
		},
		{
			"buffer":0,
			"byteLength":729204,
			"byteOffset":7585908,
			"target":34962
		},
		{
			"buffer":0,
			"byteLength":486136,
			"byteOffset":8315112,
			"target":34962
		},
		{
			"buffer":0,
			"byteLength":972272,
			"byteOffset":8801248,
			"target":34962
		},
		{
			"buffer":0,
			"byteLength":184320,
			"byteOffset":9773520,
			"target":34963
		},
		{
			"buffer":0,
			"byteLength":2880,
			"byteOffset":9957840,
			"target":34962
		},
		{
			"buffer":0,
			"byteLength":2880,
			"byteOffset":9960720,
			"target":34962
		},
		{
			"buffer":0,
			"byteLength":1920,
			"byteOffset":9963600,
			"target":34962
		},
		{
			"buffer":0,
			"byteLength":3840,
			"byteOffset":9965520,
			"target":34962
		},
		{
			"buffer":0,
			"byteLength":480,
			"byteOffset":9969360,
			"target":34963
		},
		{
			"buffer":0,
			"byteLength":160,
			"byteOffset":9969840
		},
		{
			"buffer":0,
			"byteLength":480,
			"byteOffset":9970000
		},
		{
			"buffer":0,
			"byteLength":8,
			"byteOffset":9970480
		},
		{
			"buffer":0,
			"byteLength":32,
			"byteOffset":9970488
		},
		{
			"buffer":0,
			"byteLength":480,
			"byteOffset":9970520
		}
	],
	"buffers":[
		{
			"byteLength":9971000,
			"uri":"Slime2-951f91a571b8235f4066cf79823974c2.bin"
		}
	]
}
