{
	"asset":{
		"generator":"Khronos glTF Blender I/O v4.3.47",
		"version":"2.0"
	},
	"scene":0,
	"scenes":[
		{
			"name":"Scene",
			"nodes":[
				0,
				1
			]
		}
	],
	"nodes":[
		{
			"name":"LineArt",
			"translation":[
				0,
				0.9102891087532043,
				0
			]
		},
		{
			"mesh":0,
			"name":"Slime",
			"scale":[
				0.13965576887130737,
				0.13965576887130737,
				0.13965576887130737
			],
			"translation":[
				0,
				0.7568472623825073,
				0
			]
		}
	],
	"materials":[
		{
			"doubleSided":true,
			"name":"Material.001",
			"pbrMetallicRoughness":{
				"baseColorFactor":[
					0.1650465726852417,
					0.1650465726852417,
					0.1650465726852417,
					1
				],
				"metallicFactor":0,
				"roughnessFactor":0.5
			}
		},
		{
			"doubleSided":true,
			"name":"Material"
		}
	],
	"meshes":[
		{
			"name":"Icosphere",
			"primitives":[
				{
					"attributes":{
						"POSITION":0,
						"NORMAL":1,
						"TEXCOORD_0":2,
						"TANGENT":3
					},
					"indices":4,
					"material":0
				},
				{
					"attributes":{
						"POSITION":5,
						"NORMAL":6,
						"TEXCOORD_0":7,
						"TANGENT":8
					},
					"indices":9,
					"material":1
				}
			]
		}
	],
	"accessors":[
		{
			"bufferView":0,
			"componentType":5126,
			"count":240,
			"max":[
				0.9510578513145447,
				1,
				0.9999999403953552
			],
			"min":[
				-0.9510578513145447,
				-1,
				-0.9999999403953552
			],
			"type":"VEC3"
		},
		{
			"bufferView":1,
			"componentType":5126,
			"count":240,
			"type":"VEC3"
		},
		{
			"bufferView":2,
			"componentType":5126,
			"count":240,
			"type":"VEC2"
		},
		{
			"bufferView":3,
			"componentType":5126,
			"count":240,
			"type":"VEC4"
		},
		{
			"bufferView":4,
			"componentType":5123,
			"count":240,
			"type":"SCALAR"
		},
		{
			"bufferView":5,
			"componentType":5126,
			"count":1536,
			"max":[
				9.65923023223877,
				6.545356750488281,
				8.07780933380127
			],
			"min":[
				-9.65923023223877,
				-4.3586649894714355,
				-7.904112815856934
			],
			"type":"VEC3"
		},
		{
			"bufferView":6,
			"componentType":5126,
			"count":1536,
			"type":"VEC3"
		},
		{
			"bufferView":7,
			"componentType":5126,
			"count":1536,
			"type":"VEC2"
		},
		{
			"bufferView":8,
			"componentType":5126,
			"count":1536,
			"type":"VEC4"
		},
		{
			"bufferView":9,
			"componentType":5123,
			"count":2304,
			"type":"SCALAR"
		}
	],
	"bufferViews":[
		{
			"buffer":0,
			"byteLength":2880,
			"byteOffset":0,
			"target":34962
		},
		{
			"buffer":0,
			"byteLength":2880,
			"byteOffset":2880,
			"target":34962
		},
		{
			"buffer":0,
			"byteLength":1920,
			"byteOffset":5760,
			"target":34962
		},
		{
			"buffer":0,
			"byteLength":3840,
			"byteOffset":7680,
			"target":34962
		},
		{
			"buffer":0,
			"byteLength":480,
			"byteOffset":11520,
			"target":34963
		},
		{
			"buffer":0,
			"byteLength":18432,
			"byteOffset":12000,
			"target":34962
		},
		{
			"buffer":0,
			"byteLength":18432,
			"byteOffset":30432,
			"target":34962
		},
		{
			"buffer":0,
			"byteLength":12288,
			"byteOffset":48864,
			"target":34962
		},
		{
			"buffer":0,
			"byteLength":24576,
			"byteOffset":61152,
			"target":34962
		},
		{
			"buffer":0,
			"byteLength":4608,
			"byteOffset":85728,
			"target":34963
		}
	],
	"buffers":[
		{
			"byteLength":90336,
			"uri":"Slime-fe608aa412e94c09262f765ad8f45e11.bin"
		}
	]
}
