{
	"asset":{
		"generator":"Khronos glTF Blender I/O v4.3.47",
		"version":"2.0"
	},
	"scene":0,
	"scenes":[
		{
			"name":"Scene",
			"nodes":[
				0
			]
		}
	],
	"nodes":[
		{
			"mesh":0,
			"name":"tree-col",
			"translation":[
				-0.5279287099838257,
				0.5718980431556702,
				0.43148910999298096
			]
		}
	],
	"materials":[
		{
			"doubleSided":true,
			"name":"Material.001",
			"pbrMetallicRoughness":{
				"baseColorFactor":[
					0.462074339389801,
					0.25818318128585815,
					0.10461658239364624,
					1
				],
				"metallicFactor":0,
				"roughnessFactor":0.5
			}
		},
		{
			"doubleSided":true,
			"name":"Material.002",
			"pbrMetallicRoughness":{
				"baseColorFactor":[
					0.4396542012691498,
					0.6375978589057922,
					0.22322815656661987,
					1
				],
				"metallicFactor":0,
				"roughnessFactor":0.5
			}
		}
	],
	"meshes":[
		{
			"name":"Cube.002",
			"primitives":[
				{
					"attributes":{
						"POSITION":0,
						"NORMAL":1,
						"TEXCOORD_0":2
					},
					"indices":3,
					"material":0
				},
				{
					"attributes":{
						"POSITION":4,
						"NORMAL":5,
						"TEXCOORD_0":6
					},
					"indices":7,
					"material":1
				}
			]
		}
	],
	"accessors":[
		{
			"bufferView":0,
			"componentType":5126,
			"count":958,
			"max":[
				6.372799873352051,
				7.872994899749756,
				2.435131549835205
			],
			"min":[
				-5.790509223937988,
				-0.563226580619812,
				-2.553459882736206
			],
			"type":"VEC3"
		},
		{
			"bufferView":1,
			"componentType":5126,
			"count":958,
			"type":"VEC3"
		},
		{
			"bufferView":2,
			"componentType":5126,
			"count":958,
			"type":"VEC2"
		},
		{
			"bufferView":3,
			"componentType":5123,
			"count":2064,
			"type":"SCALAR"
		},
		{
			"bufferView":4,
			"componentType":5126,
			"count":1200,
			"max":[
				9.788250923156738,
				12.206501007080078,
				4.392106056213379
			],
			"min":[
				-9.347061157226562,
				5.125911712646484,
				-6.746875762939453
			],
			"type":"VEC3"
		},
		{
			"bufferView":5,
			"componentType":5126,
			"count":1200,
			"type":"VEC3"
		},
		{
			"bufferView":6,
			"componentType":5126,
			"count":1200,
			"type":"VEC2"
		},
		{
			"bufferView":7,
			"componentType":5123,
			"count":1740,
			"type":"SCALAR"
		}
	],
	"bufferViews":[
		{
			"buffer":0,
			"byteLength":11496,
			"byteOffset":0,
			"target":34962
		},
		{
			"buffer":0,
			"byteLength":11496,
			"byteOffset":11496,
			"target":34962
		},
		{
			"buffer":0,
			"byteLength":7664,
			"byteOffset":22992,
			"target":34962
		},
		{
			"buffer":0,
			"byteLength":4128,
			"byteOffset":30656,
			"target":34963
		},
		{
			"buffer":0,
			"byteLength":14400,
			"byteOffset":34784,
			"target":34962
		},
		{
			"buffer":0,
			"byteLength":14400,
			"byteOffset":49184,
			"target":34962
		},
		{
			"buffer":0,
			"byteLength":9600,
			"byteOffset":63584,
			"target":34962
		},
		{
			"buffer":0,
			"byteLength":3480,
			"byteOffset":73184,
			"target":34963
		}
	],
	"buffers":[
		{
			"byteLength":76664,
			"uri":"Tree-73bf9cc24f060201c192c7305dc9670e.bin"
		}
	]
}
