{
	"asset":{
		"generator":"Khronos glTF Blender I/O v4.3.47",
		"version":"2.0"
	},
	"scene":0,
	"scenes":[
		{
			"name":"Scene",
			"nodes":[
				0
			]
		}
	],
	"nodes":[
		{
			"mesh":0,
			"name":"tree-col",
			"scale":[
				6.729499340057373,
				6.729499340057373,
				6.729499340057373
			],
			"translation":[
				8.063096046447754,
				32.411624908447266,
				-0.936106264591217
			]
		}
	],
	"materials":[
		{
			"doubleSided":true,
			"name":"Material.002",
			"pbrMetallicRoughness":{
				"baseColorFactor":[
					0.4396542012691498,
					0.6375978589057922,
					0.22322815656661987,
					1
				],
				"metallicFactor":0,
				"roughnessFactor":0.5
			}
		},
		{
			"doubleSided":true,
			"name":"Material.001",
			"pbrMetallicRoughness":{
				"baseColorFactor":[
					0.462074339389801,
					0.25818318128585815,
					0.10461658239364624,
					1
				],
				"metallicFactor":0,
				"roughnessFactor":0.5
			}
		}
	],
	"meshes":[
		{
			"name":"Icosphere.005",
			"primitives":[
				{
					"attributes":{
						"POSITION":0,
						"NORMAL":1,
						"TEXCOORD_0":2,
						"TANGENT":3
					},
					"indices":4,
					"material":0
				},
				{
					"attributes":{
						"POSITION":5,
						"NORMAL":6,
						"TEXCOORD_0":7,
						"TANGENT":8
					},
					"indices":9,
					"material":1
				}
			]
		}
	],
	"accessors":[
		{
			"bufferView":0,
			"componentType":5126,
			"count":1440,
			"max":[
				0.9510578513145447,
				1,
				2.7905707359313965
			],
			"min":[
				-3.3673343658447266,
				-2.0675597190856934,
				-3.3070790767669678
			],
			"type":"VEC3"
		},
		{
			"bufferView":1,
			"componentType":5126,
			"count":1440,
			"type":"VEC3"
		},
		{
			"bufferView":2,
			"componentType":5126,
			"count":1440,
			"type":"VEC2"
		},
		{
			"bufferView":3,
			"componentType":5126,
			"count":1440,
			"type":"VEC4"
		},
		{
			"bufferView":4,
			"componentType":5123,
			"count":1440,
			"type":"SCALAR"
		},
		{
			"bufferView":5,
			"componentType":5126,
			"count":1276,
			"max":[
				0.07550704479217529,
				-0.8296072483062744,
				2.0400946140289307
			],
			"min":[
				-2.0900752544403076,
				-4.82606315612793,
				-1.7449836730957031
			],
			"type":"VEC3"
		},
		{
			"bufferView":6,
			"componentType":5126,
			"count":1276,
			"type":"VEC3"
		},
		{
			"bufferView":7,
			"componentType":5126,
			"count":1276,
			"type":"VEC2"
		},
		{
			"bufferView":8,
			"componentType":5126,
			"count":1276,
			"type":"VEC4"
		},
		{
			"bufferView":9,
			"componentType":5123,
			"count":2832,
			"type":"SCALAR"
		}
	],
	"bufferViews":[
		{
			"buffer":0,
			"byteLength":17280,
			"byteOffset":0,
			"target":34962
		},
		{
			"buffer":0,
			"byteLength":17280,
			"byteOffset":17280,
			"target":34962
		},
		{
			"buffer":0,
			"byteLength":11520,
			"byteOffset":34560,
			"target":34962
		},
		{
			"buffer":0,
			"byteLength":23040,
			"byteOffset":46080,
			"target":34962
		},
		{
			"buffer":0,
			"byteLength":2880,
			"byteOffset":69120,
			"target":34963
		},
		{
			"buffer":0,
			"byteLength":15312,
			"byteOffset":72000,
			"target":34962
		},
		{
			"buffer":0,
			"byteLength":15312,
			"byteOffset":87312,
			"target":34962
		},
		{
			"buffer":0,
			"byteLength":10208,
			"byteOffset":102624,
			"target":34962
		},
		{
			"buffer":0,
			"byteLength":20416,
			"byteOffset":112832,
			"target":34962
		},
		{
			"buffer":0,
			"byteLength":5664,
			"byteOffset":133248,
			"target":34963
		}
	],
	"buffers":[
		{
			"byteLength":138912,
			"uri":"Tree2-7f2bdc30ac327fe37b76549d1e95b6fb.bin"
		}
	]
}
